<?xml version="1.0" standalone="no"?>
<!DOCTYPE svg PUBLIC "-//W3C//DTD SVG 20010904//EN"
 "http://www.w3.org/TR/2001/REC-SVG-20010904/DTD/svg10.dtd">
<svg version="1.0" xmlns="http://www.w3.org/2000/svg"
 width="500.000000pt" height="500.000000pt" viewBox="0 0 500.000000 500.000000"
 preserveAspectRatio="xMidYMid meet">

<g transform="translate(0.000000,500.000000) scale(0.100000,-0.100000)"
fill="#000000" stroke="none">
<path d="M1573 4256 c-39 -18 -56 -67 -41 -123 14 -54 23 -64 118 -118 110
-63 180 -114 258 -189 66 -63 142 -156 142 -173 0 -6 -28 -16 -62 -22 -75 -13
-171 -57 -221 -100 -76 -67 -182 -233 -424 -661 -200 -354 -226 -449 -169
-615 34 -102 47 -126 195 -385 259 -454 304 -523 388 -602 96 -89 180 -116
393 -125 80 -3 152 -10 162 -14 18 -9 49 -97 98 -278 32 -120 51 -171 76 -209
15 -22 17 -23 34 -7 10 9 34 67 53 128 19 62 51 165 71 229 20 64 43 123 50
131 11 10 56 16 168 20 364 14 413 55 734 612 247 429 284 511 284 637 0 40
-5 91 -11 113 -17 62 -102 226 -269 515 -183 319 -263 442 -325 499 -55 50
-151 98 -214 106 -25 4 -56 10 -69 16 -23 9 -23 9 22 67 92 121 211 218 396
325 57 33 100 95 100 143 0 34 -46 82 -84 90 -48 8 -147 -20 -209 -59 -108
-70 -226 -232 -316 -434 l-55 -123 -332 0 -333 0 -6 23 c-16 50 -138 283 -185
352 -28 40 -76 97 -106 125 -96 90 -238 139 -311 106z m1472 -861 c27 -11 66
-36 85 -56 51 -50 269 -400 270 -431 0 -5 -398 -8 -885 -8 -654 0 -885 3 -885
11 0 18 167 296 226 375 59 81 105 109 200 123 32 5 257 8 499 7 410 -2 443
-3 490 -21z m532 -790 c47 -86 76 -190 69 -241 -3 -23 -27 -87 -53 -143 l-48
-102 -1029 1 -1029 0 -23 37 c-40 64 -84 189 -84 237 0 48 19 103 71 211 l32
65 1031 -2 1031 -3 32 -60z m-177 -730 c0 -11 -83 -160 -119 -213 -21 -31 -51
-77 -66 -101 -43 -69 -116 -142 -163 -163 -32 -14 -82 -22 -190 -28 -193 -12
-587 -12 -732 0 -197 16 -233 46 -412 344 -49 80 -88 150 -88 156 0 7 281 10
885 10 487 0 885 -2 885 -5z"/>
<path d="M2145 3285 c-59 -21 -85 -56 -85 -116 0 -91 46 -139 132 -139 61 0
102 28 123 84 17 44 17 48 1 91 -29 74 -96 105 -171 80z"/>
<path d="M2793 3289 c-67 -19 -105 -102 -81 -175 34 -102 196 -116 242 -20 36
75 11 152 -59 186 -45 22 -55 23 -102 9z"/>
</g>
</svg>
